<?xml version="1.0" encoding="UTF-8"?>
<svg width="500px" height="677px" viewBox="0 0 500 677" version="1.1" xmlns="http://www.w3.org/2000/svg" xmlns:xlink="http://www.w3.org/1999/xlink">
    <!-- Generator: Sketch 3.8.3 (29802) - http://www.bohemiancoding.com/sketch -->
    <title>logo</title>
    <desc>Created with Sketch.</desc>
    <defs></defs>
    <g id="Page-1" stroke="none" stroke-width="1" fill="none" fill-rule="evenodd">
        <g id="logo">
            <polygon id="Shape" fill="#FFFFFF" points="39.97582 332.261641 21.5254415 406.097561 53.8136039 464.550998 136.840307 552.231153 201.416632 606.069845 249.080109 595.302106 298.281119 581.457871 428.971299 507.621951 445.884146 449.168514 459.72193 332.261641 459.72193 306.111419 107.627208 306.111419"></polygon>
            <path d="M398.220669,132.289357 L261.380362,269.193459 C255.230235,275.346452 244.467515,275.346452 236.779857,269.193459 L101.477082,132.289357 L39.97582,161.516075 L39.97582,332.261641 C81.4891716,375.332594 192.191442,479.933481 249.080109,479.933481 C305.968776,479.933481 416.671047,373.794346 458.184399,332.261641 L458.184399,163.054324 L398.220669,132.289357 L398.220669,132.289357 Z" id="Shape" fill="#ED713A"></path>
            <path d="M485.859966,1.53824834 C479.70984,-1.53824834 472.022183,0 465.872056,6.15299335 L249.080109,223.046009 L30.7506308,6.15299335 C23.0629731,-1.53824834 12.3002523,-1.53824834 4.61259462,6.15299335 C1.53753154,9.22949002 0,13.844235 0,18.45898 L0,341.491131 C0,412.250554 18.4503785,453.783259 70.7264508,506.083703 L233.704794,669.138027 C242.929983,678.367517 256.767767,678.367517 265.992956,669.138027 L428.971299,506.083703 C481.247372,453.783259 499.69775,412.250554 499.69775,341.491131 L499.69775,18.45898 C498.160219,10.7677384 493.547624,4.61474501 485.859966,1.53824834 L485.859966,1.53824834 Z M458.184399,341.491131 C458.184399,401.482816 444.346615,432.247783 399.7582,476.856984 L296.743587,579.919623 L285.980866,569.151885 L272.143082,555.30765 C259.84283,543.001663 238.317389,543.001663 226.017136,555.30765 L212.179352,569.151885 L201.416632,579.919623 L98.4020185,476.856984 C53.8136039,432.247783 39.97582,399.944568 39.97582,339.952882 L39.97582,161.516075 L101.477082,130.751109 L236.779857,266.116962 C242.929983,272.269956 253.692704,272.269956 261.380362,266.116962 L396.683137,130.751109 L458.184399,159.977827 L458.184399,341.491131 L458.184399,341.491131 Z M123.002523,349.182373 L39.97582,332.261641 C67.6513877,359.950111 123.002523,413.788803 173.741064,447.630266 L173.741064,398.406319 C173.741064,369.179601 169.128469,359.950111 123.002523,349.182373 L123.002523,349.182373 Z M322.881623,398.406319 L322.881623,447.630266 C375.157696,413.788803 430.508831,359.950111 456.646867,332.261641 L373.620164,349.182373 C327.494218,359.950111 322.881623,369.179601 322.881623,398.406319 L322.881623,398.406319 Z" id="Shape" fill="#010101"></path>
        </g>
    </g>
</svg>